<svg version="1.2" xmlns="http://www.w3.org/2000/svg" viewBox="0 0 1800 1800" width="1800" height="1800">
	<title>servers-svgrepo-com-svg</title>
	<style>
		.s0 { fill: #ffffff } 
	</style>
	<g id="Layer">
		<path id="Layer" fill-rule="evenodd" class="s0" d="m1797.7 747v315.4c0 46.6-37.9 84.5-84.5 84.5h-1626.4c-46.6 0-84.5-37.9-84.5-84.5v-315.4c0-46.6 37.9-84.5 84.5-84.5h1626.4c46.6 0 84.5 37.9 84.5 84.5zm-63 0c0-11.8-9.6-21.5-21.5-21.5h-1626.4c-11.9 0-21.5 9.6-21.5 21.5v315.4c0 11.8 9.6 21.5 21.5 21.5h1626.4c11.9 0 21.5-9.7 21.5-21.5 0 0 0-315.4 0-315.4z"/>
		<path id="Layer" class="s0" d="m262.7 851.2c-29.5 0-53.5 24-53.5 53.5 0 29.5 24 53.4 53.5 53.4 29.5 0 53.4-23.9 53.4-53.4 0-29.5-23.9-53.5-53.4-53.5z"/>
		<path id="Layer" class="s0" d="m447 851.2c-29.5 0-53.4 24-53.4 53.5 0 29.5 23.9 53.4 53.4 53.4 29.5 0 53.5-23.9 53.5-53.4 0-29.5-24-53.5-53.5-53.5z"/>
		<path id="Layer" class="s0" d="m631.3 851.2c-29.5 0-53.4 24-53.4 53.5 0 29.5 23.9 53.4 53.4 53.4 29.6 0 53.5-23.9 53.5-53.4 0-29.5-23.9-53.5-53.5-53.5z"/>
		<path id="Layer" class="s0" d="m1567.7 873.2h-640.4c-17.4 0-31.5 14.1-31.5 31.5 0 17.4 14.1 31.5 31.5 31.5h640.4c17.4 0 31.5-14.1 31.5-31.5 0-17.4-14.1-31.5-31.5-31.5z"/>
		<path id="Layer" fill-rule="evenodd" class="s0" d="m1797.7 1400.1v315.4c0 46.6-37.9 84.5-84.5 84.5h-1626.4c-46.6 0-84.5-37.9-84.5-84.5v-315.4c0-46.6 37.9-84.5 84.5-84.5h1626.4c46.6 0 84.5 37.9 84.5 84.5zm-63 0c0-11.9-9.6-21.5-21.5-21.5h-1626.4c-11.9 0-21.5 9.6-21.5 21.5v315.4c0 11.8 9.6 21.5 21.5 21.5h1626.4c11.9 0 21.5-9.7 21.5-21.5 0 0 0-315.4 0-315.4z"/>
		<path id="Layer" class="s0" d="m262.7 1504.3c-29.5 0-53.5 24-53.5 53.5 0 29.5 24 53.4 53.5 53.4 29.5 0 53.4-23.9 53.4-53.4 0-29.5-23.9-53.5-53.4-53.5z"/>
		<path id="Layer" class="s0" d="m447 1504.3c-29.5 0-53.4 24-53.4 53.5 0 29.5 23.9 53.4 53.4 53.4 29.5 0 53.5-23.9 53.5-53.4 0-29.5-24-53.5-53.5-53.5z"/>
		<path id="Layer" class="s0" d="m631.3 1504.3c-29.5 0-53.4 24-53.4 53.5 0 29.5 23.9 53.4 53.4 53.4 29.6 0 53.5-23.9 53.5-53.4 0-29.5-23.9-53.5-53.5-53.5z"/>
		<path id="Layer" class="s0" d="m1567.7 1526.3h-640.4c-17.4 0-31.5 14.1-31.5 31.5 0 17.4 14.1 31.5 31.5 31.5h640.4c17.4 0 31.5-14.1 31.5-31.5 0-17.4-14.1-31.5-31.5-31.5z"/>
		<path id="Layer" fill-rule="evenodd" class="s0" d="m1797.7 84.5v315.4c0 46.6-37.9 84.5-84.5 84.5h-1626.4c-46.6 0-84.5-37.9-84.5-84.5v-315.3c0-46.7 37.9-84.6 84.5-84.6h1626.4c46.6 0 84.5 37.9 84.5 84.6zm-63 0c0-11.9-9.6-21.6-21.5-21.6h-1626.4c-11.9 0-21.5 9.7-21.5 21.6v315.3c0 11.9 9.6 21.5 21.5 21.5h1626.4c11.9 0 21.5-9.6 21.5-21.5 0 0 0-315.3 0-315.3z"/>
		<path id="Layer" class="s0" d="m262.7 295.7c-29.6 0-53.5-23.9-53.5-53.5 0-29.6 23.9-53.4 53.5-53.4 29.5 0 53.4 23.8 53.4 53.4 0 29.6-23.9 53.5-53.4 53.5z"/>
		<path id="Layer" class="s0" d="m447 188.8c-29.5 0-53.4 23.9-53.4 53.4 0 29.5 23.9 53.5 53.4 53.5 29.5 0 53.5-24 53.5-53.5 0-29.5-24-53.4-53.5-53.4z"/>
		<path id="Layer" class="s0" d="m631.3 188.8c-29.5 0-53.4 23.9-53.4 53.4 0 29.5 23.9 53.5 53.4 53.5 29.6 0 53.5-24 53.5-53.5 0-29.5-23.9-53.4-53.5-53.4z"/>
		<path id="Layer" class="s0" d="m1567.7 210.7h-640.4c-17.4 0-31.5 14.1-31.5 31.5 0 17.4 14.1 31.5 31.5 31.5h640.4c17.4 0 31.5-14.1 31.5-31.5 0-17.4-14.1-31.5-31.5-31.5z"/>
	</g>
</svg>