<?xml version="1.0" encoding="utf-8"?>
<!-- Generator: Adobe Illustrator 24.3.0, SVG Export Plug-In . SVG Version: 6.00 Build 0)  -->
<svg version="1.1" id="Layer_1" xmlns="http://www.w3.org/2000/svg" xmlns:xlink="http://www.w3.org/1999/xlink" x="0px" y="0px"
	 viewBox="0 0 650.3 400.3" style="enable-background:new 0 0 650.3 400.3;" xml:space="preserve">
<path d="M200.3,75.6c-69,0-125,56-125,125c0,69,56,125,125,125c35.6,0,67.7-14.8,90.5-38.8c14.3-15,38-15.6,53-1.3
	c15,14.3,15.6,38,1.3,53c-36.4,38.2-87.8,62-144.8,62c-110.5,0-200-89.5-200-200s89.5-200,200-200c56.7,0,108,23.7,144.3,61.5
	c14.3,14.9,13.9,38.7-1.1,53c-14.9,14.3-38.7,13.9-53-1.1C267.8,90.3,235.8,75.6,200.3,75.6z"/>
<path d="M459.3,63.1c13.8,0,25,11.2,25,25v225c0,13.8-11.2,25-25,25c-13.8,0-25-11.2-25-25v-225C434.3,74.3,445.5,63.1,459.3,63.1z"
	/>
<path d="M566.3,63.1c13.8,0,25,11.2,25,25v225c0,13.8-11.2,25-25,25c-13.8,0-25-11.2-25-25v-225C541.3,74.3,552.5,63.1,566.3,63.1z"
	/>
<path d="M375.3,147.1c0-13.8,11.2-25,25-25h225c13.8,0,25,11.2,25,25c0,13.8-11.2,25-25,25h-225
	C386.5,172.1,375.3,160.9,375.3,147.1z"/>
<path d="M375.3,254.1c0-13.8,11.2-25,25-25h225c13.8,0,25,11.2,25,25c0,13.8-11.2,25-25,25h-225
	C386.5,279.1,375.3,267.9,375.3,254.1z"/>
</svg>
