<svg version="1.2" xmlns="http://www.w3.org/2000/svg" viewBox="0 0 1800 1800" width="1800" height="1800">
	<title>responsive-svgrepo-com-svg</title>
	<style>
		.s0 { fill: #ffffff } 
	</style>
	<g id="Layer">
		<g id="Layer">
			<path id="Layer" fill-rule="evenodd" class="s0" d="m1791 1020.4v546.7c0 23.3-19 42.3-42.3 42.3h-300.6c-23.4 0-42.4-19-42.4-42.3v-546.7c0-23.4 19-42.4 42.4-42.4h300.6c23.3 0 42.3 19 42.3 42.4zm-49.8 7.4h-285.7v531.8h285.7z"/>
			<path id="Layer" class="s0" d="m1598.1 1479.1c-13.2 0-24 10.7-24 24 0 13.2 10.8 24 24 24 13.3 0 24-10.8 24-24 0-13.3-10.7-24-24-24z"/>
			<path id="Layer" class="s0" d="m1639.1 1060.9c-1.8-1-3.8-1.6-6-1.6h-69.5c-2.2 0-4.2 0.6-5.9 1.6-3.9 2.1-6.6 6.2-6.6 10.9 0 6.9 5.6 12.4 12.5 12.4h69.5c6.9 0 12.5-5.5 12.5-12.4 0-4.7-2.7-8.8-6.5-10.9z"/>
			<path id="Layer" fill-rule="evenodd" class="s0" d="m58.8 1060.9h1297.8l0.1 49.8h-1297.9v172.2c0 11.9 8.1 21.5 18 21.5h1279.9v49.8h-353.2v205.3h236.9c13.8 0 24.9 11.1 24.9 24.9 0 13.7-11.1 24.9-24.9 24.9h-786.5c-13.8 0-24.9-11.2-24.9-24.9 0-13.8 11.1-24.9 24.9-24.9h236.9v-205.3h-614c-37.4 0-67.8-32-67.8-71.3v-1021.1c0-39.3 30.4-71.2 67.8-71.2h1540.7c37.4 0 67.8 31.9 67.8 71.2v674.7h-49.8v-674.7c0-11.8-8.1-21.4-18-21.4h-1540.7c-9.9 0-18 9.6-18 21.4zm894.9 293.3h-213.1v205.3h213.1c0 0 0-205.3 0-205.3z"/>
			<path id="Layer" class="s0" d="m808.3 1205.6c0 21.5 17.4 38.9 38.8 38.9 21.5 0 38.9-17.4 38.9-38.9 0-21.5-17.4-38.9-38.9-38.9-21.4 0-38.8 17.4-38.8 38.9z"/>
			<path id="Layer" class="s0" d="m273.2 457.5h625.6c13.7 0 24.9-11.1 24.9-24.9 0-13.7-11.2-24.9-24.9-24.9h-625.6c-13.8 0-24.9 11.2-24.9 24.9 0 13.8 11.1 24.9 24.9 24.9z"/>
			<path id="Layer" class="s0" d="m1421.1 556.4h-1147.9c-13.8 0-24.9 11.2-24.9 24.9 0 13.8 11.1 24.9 24.9 24.9h1147.9c13.8 0 24.9-11.1 24.9-24.9 0-13.7-11.1-24.9-24.9-24.9z"/>
			<path id="Layer" class="s0" d="m1421.1 705.1h-1147.9c-13.8 0-24.9 11.1-24.9 24.9 0 13.8 11.1 24.9 24.9 24.9h1147.9c13.8 0 24.9-11.1 24.9-24.9 0-13.8-11.1-24.9-24.9-24.9z"/>
			<path id="Layer" class="s0" d="m1421.1 853.8h-1147.9c-13.8 0-24.9 11.1-24.9 24.9 0 13.8 11.1 24.9 24.9 24.9h1147.9c13.8 0 24.9-11.1 24.9-24.9 0-13.8-11.1-24.9-24.9-24.9z"/>
		</g>
	</g>
</svg>