<!DOCTYPE svg PUBLIC "-//W3C//DTD SVG 1.1//EN" "http://www.w3.org/Graphics/SVG/1.1/DTD/svg11.dtd">
<!-- Uploaded to: SVG Repo, www.svgrepo.com, Transformed by: SVG Repo Mixer Tools -->
<svg fill="#ffffff" height="800px" width="800px" version="1.1" id="Layer_1" xmlns="http://www.w3.org/2000/svg" xmlns:xlink="http://www.w3.org/1999/xlink" viewBox="0 0 512 512" xml:space="preserve">
<g id="SVGRepo_bgCarrier" stroke-width="0"/>
<g id="SVGRepo_tracerCarrier" stroke-linecap="round" stroke-linejoin="round"/>
<g id="SVGRepo_iconCarrier"> <g> <g> <path d="M60.952,48.762v60.952H0v353.524h451.048v-60.952H512V48.762H60.952z M414.476,426.667H36.571V146.286h377.905V426.667z M475.429,365.714h-24.381v-256H97.524V85.333h377.905V365.714z"/> </g> </g> <g> <g> <path d="M126.737,237.641h-21.264l-27.948,80.335h24.454l4.608-15.25h18.932l4.718,15.25h24.335L126.737,237.641z M110.503,286.025l5.575-18.584l5.322,18.584H110.503z"/> </g> </g> <g> <g> <path d="M221.572,255.572c-1.367-3.377-3.271-6.415-5.66-9.032c-2.393-2.622-5.303-4.781-8.649-6.417 c-3.373-1.648-7.096-2.483-11.068-2.483h-34.792v80.335h23.832v-23.917h0.001h11.508c3.968,0,7.669-0.796,10.997-2.365 c3.313-1.562,6.177-3.691,8.513-6.331c2.317-2.622,4.146-5.664,5.436-9.04c1.291-3.379,1.946-6.903,1.946-10.473 C223.635,262.417,222.941,258.96,221.572,255.572z M198.106,271.542c-0.903,0.961-1.814,1.426-2.788,1.426h-10.082v-14.239h9.533 c1.001,0,2.058,0.488,3.14,1.448c1.024,0.911,1.566,2.871,1.566,5.672C199.476,268.618,199.002,270.587,198.106,271.542z"/> </g> </g> <g> <g> <path d="M293.213,255.572c-1.367-3.377-3.271-6.415-5.66-9.032c-2.393-2.622-5.303-4.781-8.649-6.417 c-3.373-1.648-7.096-2.483-11.068-2.483h-34.792v80.335h23.832v-23.917h0.001h11.508c3.968,0,7.669-0.796,10.997-2.365 c3.313-1.562,6.177-3.691,8.513-6.331c2.317-2.622,4.146-5.664,5.436-9.04c1.291-3.379,1.946-6.903,1.946-10.473 C295.276,262.417,294.582,258.96,293.213,255.572z M269.747,271.542c-0.903,0.961-1.814,1.426-2.788,1.426h-10.082v-14.239h9.533 c1.001,0,2.058,0.488,3.14,1.448c1.024,0.911,1.566,2.871,1.566,5.672C271.117,268.618,270.643,270.587,269.747,271.542z"/> </g> </g> <g> <g> <path d="M363.638,283.143c-1.165-2.715-2.859-5.058-5.036-6.964c-2.13-1.861-4.721-3.495-7.703-4.854 c-2.926-1.334-6.243-2.57-9.841-3.671c-2.259-0.728-4.32-1.359-6.129-1.879c-1.725-0.491-3.202-1.007-4.395-1.534 c-1.097-0.484-1.932-1.008-2.482-1.557c-0.43-0.43-0.63-0.958-0.63-1.662c0-0.94,0.311-1.502,1.041-1.879 c0.953-0.492,2.298-0.741,3.994-0.741c2.208,0,4.502,0.369,6.822,1.096c2.398,0.752,4.587,1.565,6.513,2.421 c2.293,1.005,4.535,2.161,6.665,3.439l1.109,0.666l10.388-19.909l-1.108-0.555c-1.744-0.873-3.753-1.822-5.97-2.821 c-2.221-0.998-4.641-1.937-7.192-2.788c-2.567-0.855-5.255-1.569-7.987-2.122c-2.777-0.562-5.664-0.847-8.58-0.847 c-3.986,0-7.823,0.592-11.404,1.762c-3.603,1.176-6.855,2.927-9.66,5.204c-2.837,2.298-5.108,5.209-6.751,8.65 c-1.645,3.439-2.478,7.456-2.478,11.937c0,2.976,0.411,5.659,1.22,7.974c0.822,2.347,2.109,4.467,3.827,6.299 c1.688,1.807,3.859,3.438,6.451,4.847c2.532,1.38,5.587,2.682,9.073,3.867c2.337,0.805,4.592,1.514,6.705,2.105 c2.054,0.579,3.889,1.161,5.453,1.727c1.47,0.536,2.62,1.148,3.418,1.818c0.639,0.536,0.937,1.129,0.937,1.864 c-0.001,0.613-0.26,1.064-0.837,1.458c-0.397,0.269-1.471,0.722-4.197,0.722c-2.939,0-5.867-0.427-8.705-1.267 c-2.887-0.855-5.505-1.829-7.803-2.906c-2.714-1.213-5.358-2.625-7.858-4.197l-1.146-0.72l-10.309,20.986l0.968,0.575 c2.38,1.414,5.003,2.696,7.795,3.813c2.772,1.109,5.697,2.085,8.691,2.898c2.996,0.814,6.054,1.452,9.084,1.894 c3.04,0.446,6.053,0.672,8.954,0.672c3.657,0,7.351-0.435,10.978-1.295c3.674-0.869,7.021-2.313,9.946-4.291 c2.967-2.004,5.387-4.714,7.192-8.055c1.808-3.348,2.725-7.511,2.725-12.373C365.383,289.145,364.796,285.845,363.638,283.143z"/> </g> </g> </g>
</svg>