<svg version="1.2" xmlns="http://www.w3.org/2000/svg" viewBox="0 0 395 342" width="395" height="342">
	<title>SC-svg</title>
	<style>
		.s0 { fill: #ffffff } 
	</style>
	<g id="Layer">
		<g id="Layer">
			<path id="Layer" class="s0" d="m296.1 341.9h-117.1l0.4-222.7h124.7l16.1 27.5h-113.3l-0.3 168.2h73.8l83-143.7-83-143.7h-165.8l-83 143.7 83 143.7h39.1v27h-54.8l-98.5-170.7 98.5-170.7h197.1l98.6 170.7z"/>
		</g>
		<g id="Layer">
			<path id="Layer" class="s0" d="m153.7 171.4h-93.2l69.6-118.7h134.9l15.9 27.5h-134.9l-37.7 63.7h45.4z"/>
		</g>
		<g id="Layer">
			<path id="Layer" class="s0" d="m264.8 289.6h-32.8v-27.6h16.9l37.8-63.4h-54.8v-27.5h102.6z"/>
		</g>
		<g id="Layer">
			<path id="Layer" class="s0" d="m130.8 290.4l-16.4-28.3h39.3v28z"/>
		</g>
	</g>
</svg>