<?xml version="1.0" encoding="utf-8"?>
<!-- Generator: Adobe Illustrator 24.3.0, SVG Export Plug-In . SVG Version: 6.00 Build 0)  -->
<svg version="1.1" id="Layer_1" xmlns="http://www.w3.org/2000/svg" xmlns:xlink="http://www.w3.org/1999/xlink" x="0px" y="0px"
	 viewBox="0 0 395 342" style="enable-background:new 0 0 395 342;" xml:space="preserve">
<style type="text/css">
	.st0{fill:#82C9FF;}
	.st1{fill:#AAAAAA;}
</style>
<g>
	<g>
		<path class="st0" d="M296.05,341.9H179l0.37-222.7H304.1l16.14,27.54H206.87l-0.29,168.12h73.86l82.94-143.67L280.44,27.54H114.56
			L31.61,171.2l82.95,143.67h39.12v27.04H98.94L0.39,171.2L98.94,0.51h197.11l98.56,170.69L296.05,341.9z"/>
	</g>
	<g>
		<path class="st1" d="M153.72,171.44H60.45l69.69-118.77h134.81l15.94,27.54H146l-37.75,63.7h45.47V171.44z"/>
	</g>
	<g>
		<path class="st1" d="M264.8,289.58h-32.85v-27.54h16.99l37.74-63.42h-54.82v-27.54h102.63L264.8,289.58z"/>
	</g>
	<g>
		<path class="st1" d="M130.84,290.36l-16.44-28.31h39.31l-0.01,28.01L130.84,290.36z"/>
	</g>
</g>
</svg>
